<?xml version="1.0" encoding="utf-8"?>
<!-- Generator: Adobe Illustrator 26.2.1, SVG Export Plug-In . SVG Version: 6.00 Build 0)  -->
<svg version="1.1" id="Capa_1" xmlns="http://www.w3.org/2000/svg" xmlns:xlink="http://www.w3.org/1999/xlink" x="0px" y="0px"
	 viewBox="0 0 189 98" style="enable-background:new 0 0 189 98;" xml:space="preserve">
<style type="text/css">
	.st0{fill:#1EABBA;}
	.st1{fill:#0099AB;}
	.st2{fill:#FC8332;}
	.st3{fill:#CC0080;}
	.st4{fill:#FFFFFF;}
	.st5{fill:#575756;}
</style>
<g>
	<g>
		<path class="st0" d="M107.8,48.6c2.8,1.4,5.2,3.3,7,5.8c1.2,1.7,1.1,3.9-0.3,5.3c-0.6,0.6-1.4,0.9-2.2,0.9c-0.9,0-1.8-0.4-2.4-1.3
			c-1.2-1.6-2.7-3.6-4.7-4.5c-1.9-1-4.1-1.5-6.4-1.5c-5.1,0-12.9,4.1-12.9,11.4c0,7.4,7.9,11.4,12.9,11.4c2.3,0,4.4-0.5,6.4-1.4
			c2-1,3.5-3,4.7-4.6c0.6-0.8,1.5-1.3,2.4-1.3c0.8,0,1.5,0.3,2.1,0.9c1.4,1.4,1.5,3.7,0.3,5.3c-3.9,5.4-10.1,7.8-15.9,7.8
			c-5.1,0-9.6-1.6-13.4-5c-3.9-3.5-6-7.9-6-13.3c0-5.3,2.1-9.8,6-13.3c3.8-3.4,8.3-5,13.4-5C102,46.6,105,47.2,107.8,48.6
			L107.8,48.6z"/>
		<path class="st0" d="M160.3,79c0-0.9-0.3-1.8-0.8-2.5l-20.9-28.6c-0.9-1.3-2.4-1.3-3.3,0l-20.2,28.6c-0.5,0.7-0.7,1.6-0.7,2.4
			c0,2.3,1.4,3.9,3.3,3.9c1,0,1.9-0.6,2.5-1.4l16.9-24l17.6,24.1c0.6,0.8,1.5,1.3,2.5,1.3C159,82.8,160.3,81.2,160.3,79L160.3,79z"
			/>
		<path class="st0" d="M154,47.6h31c1.9,0,3.2,1.4,3.2,3.3c0,1.9-1.3,3.3-3.2,3.3h-12.3v24.4c0,1.9-1.3,3.3-3.2,3.3
			s-3.2-1.4-3.2-3.3V54.3H154c-1.9,0-3.2-1.4-3.2-3.3C150.8,49,152.1,47.6,154,47.6L154,47.6z"/>
		<path class="st0" d="M38.6,50.1v27.6c0,1.9-1.4,3.3-3.2,3.3c-1.9,0-3.2-1.4-3.2-3.3v-13C24.8,76.2,22.3,82,19.9,82.1
			c-2.4-0.1-4.8-5.9-12.2-17.3v13c0,1.9-1.3,3.3-3.2,3.3c-1.9,0-3.2-1.4-3.2-3.3V50.1c0-2.7,2.5-3.5,4-1.2l14.8,22.7
			c14.8-22.7,14.8-22.7,14.8-22.7C36.1,46.6,38.6,47.4,38.6,50.1z"/>
		<path class="st1" d="M97.4,10.3c1.9-1.9,1.9-4.9,0-6.8c-1.9-1.9-4.9-1.9-6.8,0c-1.9,1.9-1.9,4.9,0,6.8
			C92.5,12.2,95.6,12.2,97.4,10.3L97.4,10.3z"/>
		<path class="st2" d="M140.1,33.8c0-2.6-2.1-4.8-4.8-4.8c-1.3,0-2.5,0.5-3.4,1.4l0,0c-1.8,1.8-4.8,1.8-6.6,0
			c-1.8-1.8-1.8-4.8,0-6.6l0,0c0.9-0.9,1.4-2.1,1.4-3.4c0-2.6-2.1-4.8-4.8-4.8c-1,0-1.9,0.3-2.6,0.8c0,0,0,0,0,0
			c-0.1,0.1-0.3,0.2-0.4,0.3c0,0,0,0,0,0c-0.1,0.1-0.2,0.2-0.3,0.3l0,0c-1.8,1.8-4.8,1.8-6.6,0c-1.8-1.8-1.8-4.8,0-6.6l0,0
			c1.9-1.9,1.9-4.9,0-6.8c-1.9-1.9-4.9-1.9-6.8,0c-1.9,1.9-1.9,4.9,0,6.8l0,0c1.8,1.8,1.8,4.8,0,6.6c-1.8,1.8-4.8,1.8-6.6,0l0,0
			c-0.9-0.9-2.1-1.4-3.4-1.4c-2.6,0-4.8,2.1-4.8,4.8c0,2.6,2.1,4.8,4.8,4.8c1.3,0,2.5-0.5,3.4-1.4l0,0c1.8-1.8,4.8-1.8,6.6,0
			c1.8,1.8,1.8,4.8,0,6.6l0,0c-0.9,0.9-1.4,2.1-1.4,3.4c0,2.6,2.1,4.8,4.8,4.8c2.6,0,4.8-2.1,4.8-4.8c0-1.3-0.5-2.5-1.4-3.4l0,0
			c-1.8-1.8-1.8-4.8,0-6.6c1.8-1.8,4.6-1.8,6.5-0.1c0,0,0,0.1,0.1,0.1l0,0c1.8,1.8,1.8,4.8,0,6.6c0,0,0,0,0,0v0c0,0,0,0,0,0
			c-1.9,1.8-1.9,4.8-0.1,6.7c0,0,0.1,0.1,0.1,0.1c1.8,1.8,1.8,4.8,0,6.6l0,0c-0.9,0.9-1.4,2.1-1.4,3.4c0,2.6,2.1,4.8,4.8,4.8
			c2.6,0,4.8-2.1,4.8-4.8c0-1.3-0.5-2.5-1.4-3.4l0,0c-1.8-1.8-1.8-4.8,0-6.6c1.8-1.8,4.7-1.8,6.5-0.1c0.9,0.9,2.1,1.5,3.4,1.5
			C138,38.6,140.1,36.4,140.1,33.8L140.1,33.8z"/>
		<path class="st3" d="M140.6,76.3c1.9-1.9,1.9-4.9,0-6.8c-1.9-1.9-4.9-1.9-6.8,0c-1.9,1.9-1.9,4.9,0,6.8
			C135.7,78.2,138.7,78.2,140.6,76.3L140.6,76.3z"/>
		<g>
			<path class="st3" d="M59,83.1c9.7,0,17.5-8.1,17.5-18.1c0-10-7.8-18.1-17.5-18.1c-9.7,0-17.5,8.1-17.5,18.1
				C41.5,75,49.3,83.1,59,83.1L59,83.1z"/>
			<path class="st4" d="M73,72.8c0-0.2,0-0.4,0-0.6c0-0.2,0-0.4-0.1-0.6c0-0.2-0.1-0.4-0.1-0.5c-0.1-0.2-0.1-0.3-0.2-0.5
				c0-0.1-0.1-0.2-0.1-0.2c-0.2-0.5-0.5-0.9-0.9-1.3c-0.2-0.2-0.4-0.4-0.6-0.6c-0.1-0.1-0.3-0.2-0.4-0.3c-0.9-0.6-1.9-1-3-1
				c-0.1,0-0.1,0-0.2,0v0c-2.6,0-4.7-2.2-4.7-4.9c0-2.7,2.1-4.9,4.7-4.9v0c0.1,0,0.1,0,0.2,0c1.8,0,3.3-1.5,3.3-3.4
				c0-1.9-1.5-3.4-3.3-3.4c-1.8,0-3.3,1.5-3.3,3.4l0,0c0,0.1,0,0.2,0,0.3c0,3-2.3,5.4-5.2,5.5c-2.9,0-5.2-2.5-5.2-5.5
				c0-0.1,0-0.2,0-0.3l0,0c0-1.9-1.5-3.4-3.3-3.4c-1.8,0-3.3,1.5-3.3,3.4c0,1.9,1.5,3.4,3.3,3.4c0.1,0,0.1,0,0.2,0v0
				c2.6,0,4.7,2.2,4.7,4.9c0,2.7-2.1,4.9-4.7,4.9v0c-0.1,0-0.1,0-0.2,0c-1.1,0-2.2,0.4-3,1c-0.1,0.1-0.3,0.2-0.4,0.3
				c-0.2,0.2-0.4,0.4-0.6,0.6c-0.3,0.4-0.6,0.8-0.9,1.3c0,0.1-0.1,0.2-0.1,0.2c-0.1,0.2-0.1,0.3-0.2,0.5c-0.1,0.2-0.1,0.4-0.1,0.5
				c0,0.2-0.1,0.4-0.1,0.6c0,0.2,0,0.4,0,0.6c0,0.7,0.1,1.3,0.3,1.9c0.1,0.2,0.1,0.3,0.2,0.5c0.1,0.2,0.2,0.5,0.4,0.7
				c0.1,0.1,0.2,0.3,0.3,0.4c0.1,0.1,0.2,0.3,0.3,0.4c1,1,2.3,1.6,3.8,1.6c0,0,0,0,0,0c0.2,0,0.4,0,0.5,0c0,0,0,0,0,0
				c0.2,0,0.4,0,0.5-0.1c0,0,0,0,0,0c0.2,0,0.3-0.1,0.5-0.1c0,0,0,0,0,0c0.2-0.1,0.3-0.1,0.5-0.2c0,0,0,0,0,0
				c0.2-0.1,0.3-0.1,0.5-0.2c0,0,0,0,0,0c0.1-0.1,0.3-0.2,0.4-0.3c0,0,0,0,0,0c0.1-0.1,0.3-0.2,0.4-0.3c0,0,0,0,0,0
				c0.1-0.1,0.3-0.2,0.4-0.4c0,0,0,0,0,0c0.1-0.1,0.2-0.3,0.3-0.4c0,0,0,0,0,0c0.8-1,1.3-2.2,1.3-3.6c0-0.6-0.1-1.1-0.2-1.7h0
				c-0.1-0.4-0.2-0.7-0.2-1.1c0-2.1,1.6-3.8,3.6-3.8c2,0,3.6,1.7,3.6,3.8c0,0.4-0.1,0.8-0.2,1.1h0c-0.2,0.5-0.2,1.1-0.2,1.7
				c0,1.4,0.5,2.6,1.3,3.6c0,0,0,0,0,0c0.1,0.1,0.2,0.3,0.3,0.4c0,0,0,0,0,0c0.1,0.1,0.2,0.2,0.4,0.4c0,0,0,0,0,0
				c0.1,0.1,0.3,0.2,0.4,0.3c0,0,0,0,0,0c0.1,0.1,0.3,0.2,0.4,0.3c0,0,0,0,0,0c0.1,0.1,0.3,0.2,0.5,0.2c0,0,0,0,0,0
				c0.2,0.1,0.3,0.1,0.5,0.2c0,0,0,0,0,0c0.2,0.1,0.3,0.1,0.5,0.1c0,0,0,0,0,0c0.2,0,0.3,0.1,0.5,0.1c0,0,0,0,0,0c0.2,0,0.4,0,0.5,0
				c1.5,0,2.8-0.6,3.8-1.6c0.1-0.1,0.2-0.3,0.3-0.4c0.1-0.1,0.2-0.3,0.3-0.4c0.1-0.2,0.3-0.5,0.4-0.7c0.1-0.2,0.1-0.3,0.2-0.5
				C72.8,74.1,73,73.4,73,72.8L73,72.8z"/>
			<path class="st4" d="M59,57.5c1.7,0,3-1.4,3-3.1c0-1.7-1.4-3.1-3-3.1c-1.7,0-3,1.4-3,3.1C56,56.1,57.3,57.5,59,57.5L59,57.5z"/>
		</g>
		<path class="st2" d="M184.9,79.8c1.9-1.9,1.9-4.9,0-6.8c-1.9-1.9-4.9-1.9-6.8,0c-1.9,1.9-1.9,4.9,0,6.8
			C180,81.7,183,81.7,184.9,79.8L184.9,79.8z"/>
	</g>
	<g>
		<g>
			<rect x="2.4" y="87.2" class="st5" width="1.1" height="7.4"/>
		</g>
		<g>
			<polygon class="st5" points="15,87.2 15,94.6 14,94.6 14,89.4 11.5,93.7 10.9,93.7 8.4,89.4 8.4,94.6 7.4,94.6 7.4,87.2 
				8.3,87.2 11.2,92.2 14.2,87.2 			"/>
		</g>
		<g>
			<path class="st5" d="M24.5,88.4c-0.2-0.4-0.6-0.7-1.1-0.9c-0.4-0.2-1-0.3-1.6-0.3H19v7.4h1.1v-2.2h1.7c0.6,0,1.2-0.1,1.6-0.3
				c0.5-0.2,0.8-0.5,1.1-0.9c0.2-0.4,0.4-0.8,0.4-1.4C24.8,89.2,24.7,88.8,24.5,88.4z M23.3,90.9c-0.3,0.3-0.8,0.4-1.5,0.4h-1.7
				v-3.2h1.7c0.7,0,1.2,0.1,1.5,0.4c0.3,0.3,0.5,0.7,0.5,1.2C23.8,90.3,23.6,90.7,23.3,90.9z"/>
		</g>
		<g>
			<polygon class="st5" points="33.1,93.6 33.1,94.6 28.1,94.6 28.1,87.2 29.2,87.2 29.2,93.6 			"/>
		</g>
		<g>
			<polygon class="st5" points="41.4,93.6 41.4,94.6 36.1,94.6 36.1,87.2 41.2,87.2 41.2,88.2 37.1,88.2 37.1,90.3 40.8,90.3 
				40.8,91.3 37.1,91.3 37.1,93.6 			"/>
		</g>
		<g>
			<polygon class="st5" points="52.4,87.2 52.4,94.6 51.4,94.6 51.4,89.4 48.9,93.7 48.3,93.7 45.8,89.4 45.8,94.6 44.8,94.6 
				44.8,87.2 45.7,87.2 48.6,92.2 51.5,87.2 			"/>
		</g>
		<g>
			<polygon class="st5" points="61.7,93.6 61.7,94.6 56.4,94.6 56.4,87.2 61.5,87.2 61.5,88.2 57.5,88.2 57.5,90.3 61.1,90.3 
				61.1,91.3 57.5,91.3 57.5,93.6 			"/>
		</g>
		<g>
			<polygon class="st5" points="71.3,87.2 71.3,94.6 70.5,94.6 66.2,89.2 66.2,94.6 65.1,94.6 65.1,87.2 66,87.2 70.3,92.6 
				70.3,87.2 			"/>
		</g>
		<g>
			<polygon class="st5" points="80.2,87.2 80.2,88.2 77.7,88.2 77.7,94.6 76.7,94.6 76.7,88.2 74.2,88.2 74.2,87.2 			"/>
		</g>
		<g>
			<path class="st5" d="M85.8,87.2h-0.9l-3.4,7.4h1.1l0.8-1.9h3.7l0.8,1.9h1.1L85.8,87.2z M83.9,91.8l1.4-3.2l1.4,3.2H83.9z"/>
		</g>
		<g>
			<path class="st5" d="M97.2,92.7l0.7,0.7l-0.1,0.1c-0.3,0.4-0.7,0.6-1.2,0.8c-0.5,0.2-1,0.3-1.5,0.3c-0.6,0-1.1-0.1-1.5-0.3
				c-0.5-0.2-0.9-0.4-1.2-0.8c-0.3-0.3-0.6-0.7-0.8-1.2c-0.2-0.5-0.3-1-0.3-1.5c0-0.5,0.1-1,0.3-1.5c0.2-0.5,0.5-0.9,0.8-1.2
				c0.3-0.3,0.8-0.6,1.2-0.8c0.9-0.4,2.1-0.4,3,0c0.5,0.2,0.9,0.5,1.2,0.8l0.1,0.1L97.2,89L97,88.9c-0.3-0.3-0.6-0.5-0.9-0.6
				c-0.7-0.3-1.5-0.2-2.2,0c-0.3,0.1-0.6,0.3-0.9,0.6c-0.3,0.2-0.4,0.5-0.6,0.9c-0.1,0.3-0.2,0.7-0.2,1.1c0,0.4,0.1,0.8,0.2,1.1
				c0.1,0.3,0.3,0.6,0.6,0.9c0.3,0.2,0.6,0.4,0.9,0.6c0.7,0.3,1.5,0.3,2.2,0c0.3-0.1,0.6-0.3,0.9-0.6L97.2,92.7z"/>
		</g>
		<g>
			<rect x="101.1" y="87.2" class="st5" width="1.1" height="7.4"/>
		</g>
		<g>
			<polygon class="st5" points="111.5,85.4 109.5,87 108.3,87 110,85.4 			"/>
			<path class="st5" d="M112.9,89.4c-0.2-0.5-0.5-0.9-0.8-1.2c-0.3-0.3-0.8-0.6-1.2-0.8c-0.5-0.2-1-0.3-1.5-0.3
				c-0.6,0-1.1,0.1-1.5,0.3c-0.5,0.2-0.9,0.4-1.2,0.8c-0.3,0.3-0.6,0.7-0.8,1.2c-0.2,0.4-0.3,1-0.3,1.5c0,0.5,0.1,1,0.3,1.5
				c0.2,0.4,0.5,0.9,0.8,1.2c0.3,0.3,0.8,0.6,1.2,0.8c0.5,0.2,1,0.3,1.5,0.3s1.1-0.1,1.5-0.3c0.5-0.2,0.9-0.4,1.2-0.8
				c0.3-0.3,0.6-0.7,0.8-1.2c0.2-0.5,0.3-1,0.3-1.5C113.2,90.3,113.1,89.8,112.9,89.4z M112.1,90.9c0,0.4-0.1,0.8-0.2,1.1
				c-0.1,0.3-0.3,0.6-0.6,0.9c-0.2,0.2-0.5,0.4-0.9,0.6c-0.7,0.3-1.5,0.3-2.2,0c-0.3-0.1-0.6-0.3-0.9-0.6c-0.2-0.2-0.4-0.5-0.6-0.9
				c-0.1-0.3-0.2-0.7-0.2-1.1c0-0.4,0.1-0.8,0.2-1.1c0.1-0.3,0.3-0.6,0.6-0.9c0.2-0.2,0.5-0.4,0.9-0.6c0.3-0.1,0.7-0.2,1.1-0.2
				c0.4,0,0.8,0.1,1.1,0.2c0.3,0.1,0.6,0.3,0.9,0.6c0.2,0.2,0.4,0.5,0.6,0.9C112.1,90.1,112.1,90.5,112.1,90.9z"/>
		</g>
		<g>
			<polygon class="st5" points="122.8,87.2 122.8,94.6 121.9,94.6 117.6,89.2 117.6,94.6 116.6,94.6 116.6,87.2 117.4,87.2 
				121.7,92.6 121.7,87.2 			"/>
		</g>
		<g>
			<path class="st5" d="M137.4,87.2v4.2c0,1-0.3,1.9-0.8,2.4c-0.5,0.5-1.3,0.8-2.2,0.8c-0.9,0-1.7-0.3-2.2-0.8
				c-0.5-0.5-0.8-1.4-0.8-2.4v-4.2h1.1v4.2c0,0.8,0.2,1.4,0.5,1.7c0.3,0.4,0.8,0.5,1.5,0.5c0.6,0,1.1-0.2,1.5-0.5
				c0.3-0.4,0.5-0.9,0.5-1.7v-4.2H137.4z"/>
		</g>
		<g>
			<path class="st5" d="M145.7,92.1C145.7,92.1,145.7,92,145.7,92.1c0.5-0.2,0.9-0.5,1.1-0.9c0.2-0.4,0.4-0.8,0.4-1.4
				c0-0.5-0.1-1-0.4-1.4c-0.2-0.4-0.6-0.7-1.1-0.9c-0.4-0.2-1-0.3-1.6-0.3h-2.8v7.4h1.1v-2.2h1.7c0.2,0,0.3,0,0.5,0l1.6,2.3h1.2
				L145.7,92.1z M144.1,91.4h-1.7v-3.2h1.7c0.7,0,1.2,0.1,1.5,0.4c0.3,0.3,0.5,0.7,0.5,1.2c0,0.5-0.2,0.9-0.5,1.2
				C145.3,91.2,144.8,91.4,144.1,91.4z"/>
		</g>
		<g>
			<path class="st5" d="M156.5,91.4c-0.2-0.3-0.5-0.5-0.8-0.7c0,0,0,0,0,0c0.2-0.1,0.4-0.3,0.5-0.5c0.2-0.3,0.3-0.6,0.3-1.1
				c0-0.6-0.2-1.1-0.7-1.5c-0.5-0.3-1.1-0.5-1.9-0.5h-3.2v7.4h3.4c0.9,0,1.6-0.2,2.1-0.5c0.5-0.4,0.7-0.9,0.7-1.5
				C156.8,92.1,156.7,91.7,156.5,91.4z M154,93.6h-2.3v-2.3h2.3c0.6,0,1,0.1,1.3,0.3c0.3,0.2,0.4,0.5,0.4,0.9c0,0.4-0.1,0.7-0.4,0.9
				C155,93.5,154.6,93.6,154,93.6z M151.7,88.1h2.1c0.5,0,0.9,0.1,1.2,0.3c0.3,0.2,0.4,0.4,0.4,0.8c0,0.4-0.1,0.6-0.4,0.8
				c-0.3,0.2-0.7,0.3-1.2,0.3h-2.1V88.1z"/>
		</g>
		<g>
			<path class="st5" d="M163.3,87.2h-0.9l-3.4,7.4h1.1l0.8-1.9h3.7l0.8,1.9h1.1L163.3,87.2z M162.8,88.5l1.4,3.2h-2.9L162.8,88.5z"
				/>
		</g>
		<g>
			<polygon class="st5" points="175.6,87.2 175.6,94.6 174.8,94.6 170.5,89.2 170.5,94.6 169.4,94.6 169.4,87.2 170.3,87.2 
				174.6,92.6 174.6,87.2 			"/>
		</g>
		<g>
			<path class="st5" d="M182.7,87.2h-0.9l-3.4,7.4h1.1l0.8-1.9h3.7l0.8,1.9h1.1L182.7,87.2z M180.8,91.8l1.4-3.2l1.4,3.2H180.8z"/>
		</g>
	</g>
</g>
</svg>
